<svg width="283" height="203" viewBox="0 0 283 203" fill="none" xmlns="http://www.w3.org/2000/svg">
<path d="M215 73.5C215 111.462 185.098 142 148.5 142C111.902 142 82 111.462 82 73.5C82 35.5376 111.902 5 148.5 5C185.098 5 215 35.5376 215 73.5Z" stroke="black" stroke-width="10"/>
<path d="M142.555 95.699C139.293 95.699 136.455 95.1483 134.04 94.0468C131.625 92.903 129.74 91.3144 128.385 89.2809C127.071 87.2475 126.415 84.8751 126.415 82.1639C126.415 79.2832 127.22 76.6778 128.829 74.3478C130.439 72.0178 132.833 70.1538 136.01 68.7559C134.739 67.2731 133.828 65.8751 133.278 64.5619C132.727 63.2486 132.452 61.8506 132.452 60.3679C132.452 58.3344 132.96 56.534 133.977 54.9666C134.993 53.3567 136.434 52.0858 138.298 51.1538C140.204 50.2219 142.47 49.7559 145.097 49.7559C147.766 49.7559 150.032 50.243 151.896 51.2174C153.76 52.1918 155.158 53.505 156.09 55.1572C157.065 56.8094 157.509 58.6522 157.425 60.6856H149.672C149.672 59.1182 149.206 57.9532 148.274 57.1906C147.385 56.3857 146.304 55.9833 145.033 55.9833C143.593 55.9833 142.428 56.3857 141.538 57.1906C140.691 57.9955 140.268 59.0334 140.268 60.3043C140.268 61.3634 140.606 62.4437 141.284 63.5452C141.962 64.6466 142.958 65.9175 144.271 67.3579L156.726 79.6856C157.615 78.2453 158.547 76.5719 159.522 74.6656L160.92 71.8696H169.244L167.02 76.1906C165.326 79.6221 163.631 82.524 161.936 84.8963L172.167 95H162.445L157.488 90.0435C155.328 92.0346 153.019 93.4749 150.562 94.3645C148.147 95.2542 145.478 95.699 142.555 95.699ZM134.294 81.6555C134.294 83.7313 135.057 85.4894 136.582 86.9298C138.149 88.3278 140.225 89.0268 142.809 89.0268C146.495 89.0268 149.693 87.7135 152.405 85.087L140.649 73.4582C138.488 74.3902 136.878 75.5552 135.819 76.9532C134.803 78.3512 134.294 79.9186 134.294 81.6555Z" fill="black"/>
<path d="M149.453 60.1333C149.49 62.0871 147.406 65.3393 142 67.0105C142 67.0105 146.793 69.4811 146.919 70.879C147.044 72.2768 158.474 61.1275 155.509 60.1333C152.544 59.1392 149.417 58.1796 149.453 60.1333Z" fill="black" stroke="black"/>
<path d="M193.633 73.5C193.633 99.0435 173.362 119.633 148.5 119.633C123.638 119.633 103.367 99.0435 103.367 73.5C103.367 47.9565 123.638 27.3673 148.5 27.3673C173.362 27.3673 193.633 47.9565 193.633 73.5Z" stroke="black" stroke-width="6.73469"/>
<rect x="148" y="66" width="25" height="6" fill="black"/>
<path d="M2.91826 190V159.959H22.5307V164.379H8.41145V172.619H21.2432V176.911H8.41145V185.58H22.5307V190H2.91826ZM27.7288 190V159.959H34.252L43.8222 179.014L53.2636 159.959H59.7867V190H54.2936V169.272L45.925 185.708H41.5905L33.222 169.272V190H27.7288ZM65.6152 190V159.959H77.6745C80.793 159.959 83.1677 160.689 84.7985 162.148C86.4579 163.578 87.2876 165.424 87.2876 167.684C87.2876 169.572 86.7726 171.089 85.7426 172.233C84.7412 173.349 83.511 174.107 82.0519 174.507C83.7685 174.851 85.1847 175.709 86.3005 177.082C87.4163 178.427 87.9742 180.001 87.9742 181.803C87.9742 184.178 87.1159 186.138 85.3993 187.683C83.6827 189.228 81.2508 190 78.1036 190H65.6152ZM71.1084 172.576H76.8591C78.404 172.576 79.5914 172.219 80.4211 171.503C81.2508 170.788 81.6656 169.772 81.6656 168.456C81.6656 167.198 81.2508 166.21 80.4211 165.495C79.62 164.751 78.404 164.379 76.7733 164.379H71.1084V172.576ZM71.1084 185.537H77.2453C78.8761 185.537 80.135 185.165 81.0219 184.421C81.9374 183.648 82.3952 182.576 82.3952 181.202C82.3952 179.8 81.9231 178.699 80.979 177.898C80.0348 177.097 78.7617 176.696 77.1595 176.696H71.1084V185.537ZM92.6889 190V159.959H112.301V164.379H98.1821V172.619H111.014V176.911H98.1821V185.58H112.301V190H92.6889ZM117.499 190V159.959H128.529C130.932 159.959 132.906 160.374 134.451 161.204C136.025 162.005 137.198 163.106 137.97 164.508C138.743 165.881 139.129 167.412 139.129 169.1C139.129 170.931 138.643 172.605 137.67 174.121C136.726 175.638 135.238 176.739 133.207 177.426L139.429 190H133.121L127.542 178.155H122.993V190H117.499ZM122.993 174.121H128.185C130.016 174.121 131.361 173.678 132.219 172.791C133.078 171.904 133.507 170.731 133.507 169.272C133.507 167.841 133.078 166.697 132.219 165.839C131.39 164.98 130.031 164.551 128.143 164.551H122.993V174.121ZM163.605 190.515C161.545 190.515 159.728 190.143 158.155 189.399C156.61 188.627 155.394 187.568 154.507 186.223C153.648 184.85 153.219 183.234 153.219 181.374C153.219 179.343 153.806 177.54 154.979 175.967C156.18 174.364 157.911 173.106 160.172 172.19C159.199 171.131 158.498 170.13 158.069 169.186C157.64 168.213 157.425 167.169 157.425 166.053C157.425 164.136 158.097 162.563 159.442 161.332C160.815 160.074 162.689 159.444 165.064 159.444C166.609 159.444 167.954 159.745 169.098 160.345C170.242 160.918 171.129 161.719 171.759 162.749C172.388 163.779 172.674 164.952 172.617 166.268H169.055C169.084 164.98 168.683 164.007 167.853 163.349C167.052 162.691 166.123 162.362 165.064 162.362C163.777 162.362 162.775 162.706 162.06 163.392C161.345 164.079 160.987 164.952 160.987 166.01C160.987 166.926 161.23 167.813 161.717 168.671C162.232 169.529 162.99 170.488 163.991 171.546L173.475 181.116C174.305 179.915 175.206 178.47 176.179 176.782L177.509 174.465H181.329L179.441 177.812C178.182 180.072 176.98 181.96 175.836 183.477L182.316 190H177.767L173.776 185.966C172.259 187.597 170.686 188.77 169.055 189.485C167.424 190.172 165.608 190.515 163.605 190.515ZM156.824 181.245C156.824 183.019 157.454 184.493 158.712 185.666C159.971 186.839 161.616 187.425 163.648 187.425C165.164 187.425 166.537 187.139 167.768 186.567C169.027 185.966 170.257 184.993 171.458 183.648L162.36 174.422C160.472 175.166 159.07 176.11 158.155 177.254C157.268 178.398 156.824 179.729 156.824 181.245ZM210.198 190.515C207.194 190.515 204.562 189.857 202.302 188.541C200.07 187.225 198.311 185.408 197.023 183.091C195.764 180.745 195.135 178.041 195.135 174.98C195.135 171.918 195.764 169.229 197.023 166.911C198.311 164.565 200.07 162.734 202.302 161.418C204.562 160.102 207.194 159.444 210.198 159.444C213.174 159.444 215.792 160.102 218.052 161.418C220.312 162.734 222.072 164.565 223.331 166.911C224.589 169.229 225.219 171.918 225.219 174.98C225.219 178.041 224.589 180.745 223.331 183.091C222.072 185.408 220.312 187.225 218.052 188.541C215.792 189.857 213.174 190.515 210.198 190.515ZM210.198 185.58C213.059 185.58 215.334 184.636 217.022 182.747C218.739 180.859 219.597 178.27 219.597 174.98C219.597 171.689 218.739 169.1 217.022 167.212C215.334 165.324 213.059 164.379 210.198 164.379C207.337 164.379 205.049 165.324 203.332 167.212C201.615 169.1 200.757 171.689 200.757 174.98C200.757 178.27 201.615 180.859 203.332 182.747C205.049 184.636 207.337 185.58 210.198 185.58ZM226.21 190L237.196 159.959H243.376L254.363 190H248.526L246.123 183.048H234.407L231.961 190H226.21ZM235.909 178.756H244.621L240.243 166.268L235.909 178.756ZM258.232 190V159.959H263.726V172.104L274.841 159.959H281.621L270.549 171.89L281.922 190H275.184L266.601 176.095L263.726 179.228V190H258.232Z" fill="black"/>
</svg>
